PathFileType	4	(X/Y/Z)	TVC_41_Cal_03_0_static_RCNL2025.trc
DataRate	CameraRate	NumFrames	NumMarkers	Units	OrigDataRate	OrigDataStartFrame	OrigNumFrames
100	100	4	27	mm	100	1	234
Frame#	Time	R_Shoulder			L_Shoulder			C7			J_Notch			R_Elbow			L_Elbow			R_Wrist			L_Wrist			R_Asis			L_Asis			R_Psis			L_Psis			Sacral			Thoracic			Sternum			R_Thigh_Lateral			R_Knee_Lateral			R_Shank_Lateral			R_Ankle_Lateral			R_Heel			R_Toe			L_Thigh_Lateral			L_Knee_Lateral			L_Shank_Lateral			L_Ankle_Lateral			L_Heel			L_Toe		
		X1	Y1	Z1	X2	Y2	Z2	X3	Y3	Z3	X4	Y4	Z4	X5	Y5	Z5	X6	Y6	Z6	X7	Y7	Z7	X8	Y8	Z8	X9	Y9	Z9	X10	Y10	Z10	X11	Y11	Z11	X12	Y12	Z12	X13	Y13	Z13	X14	Y14	Z14	X15	Y15	Z15	X16	Y16	Z16	X17	Y17	Z17	X18	Y18	Z18	X19	Y19	Z19	X20	Y20	Z20	X21	Y21	Z21	X22	Y22	Z22	X23	Y23	Z23	X24	Y24	Z24	X25	Y25	Z25	X26	Y26	Z26	X27	Y27	Z27
1	0.00000000	-278.719818	1276.509766	-69.034317	-287.224762	1249.057495	-404.956573	-355.454803	1310.464478	-234.318710	-220.288925	1221.104736	-229.605087	-244.672928	985.599854	-13.250355	-301.589233	951.005981	-445.130157	-186.096245	782.944336	-26.900568	-228.914734	757.592682	-454.349945	-222.233566	859.397827	-86.967514	-223.548325	859.476868	-331.524536	-357.309662	881.978943	-153.978134	-394.322723	884.002014	-242.541611	-375.816193	882.990479	-198.259872	-360.420349	1014.017578	-216.820923	-169.546188	1045.949463	-228.771378	-270.932007	640.484009	5.790905	-262.075775	412.824615	-58.257130	-296.079285	286.433563	-1.415043	-282.170197	73.507324	-65.163277	-317.798340	45.879002	-121.374794	-172.879150	45.483242	-40.275177	-315.188843	593.527527	-417.283691	-308.388367	409.257355	-339.877167	-312.739746	269.266449	-378.958954	-337.826080	66.782532	-300.345856	-376.022919	43.813503	-258.347900	-212.514481	39.371979	-289.431061
2	0.01000000	-278.791870	1276.519165	-69.004791	-287.317261	1249.103638	-404.935852	-355.537811	1310.467285	-234.273102	-220.322998	1221.104980	-229.615601	-244.706192	985.605957	-13.262183	-301.541382	950.932068	-445.202942	-186.180557	782.960724	-26.944032	-228.765892	757.613312	-454.286331	-222.270630	859.456726	-86.947220	-223.490601	859.558777	-331.643829	-357.449921	882.176453	-154.188889	-394.398956	884.017578	-242.504166	-375.924438	883.097015	-198.346527	-360.493011	1014.027649	-216.785660	-169.628159	1045.926147	-228.636581	-270.858978	640.555298	5.845806	-262.060333	412.777954	-58.213440	-296.091034	286.482422	-1.428371	-282.157379	73.494514	-65.162277	-317.855530	45.913216	-121.330269	-172.790054	45.503487	-40.094009	-315.234955	593.605774	-417.244507	-308.408661	409.251129	-339.909576	-312.781189	269.352661	-379.013092	-337.866089	66.871384	-300.358856	-376.105408	43.858803	-258.313110	-212.537964	39.346462	-289.409210
3	0.02000000	-278.772247	1276.408691	-69.043221	-287.355957	1249.124023	-404.883850	-355.561157	1310.414551	-234.238556	-220.299835	1221.163086	-229.613342	-244.697052	985.557312	-13.291194	-301.410706	950.931763	-445.159332	-186.211044	782.959778	-26.998390	-228.635994	757.648041	-454.226761	-222.221390	859.321533	-87.037544	-223.481384	859.510254	-331.626556	-357.553284	882.312927	-154.309662	-394.409882	883.963562	-242.512985	-375.981583	883.138245	-198.411324	-360.505219	1014.013977	-216.778717	-169.596054	1045.935181	-228.738037	-270.868256	640.544861	5.827903	-262.072205	412.762939	-58.199169	-296.116943	286.473450	-1.401396	-282.185944	73.534897	-65.139778	-317.756653	45.953968	-121.329498	-172.929138	45.621025	-40.230431	-315.225677	593.566345	-417.249481	-308.428162	409.241486	-339.877075	-312.794189	269.360107	-379.035522	-337.819580	66.756958	-300.353088	-376.052155	43.787300	-258.385162	-212.508469	39.396130	-289.404114
4	0.03000000	-278.901978	1276.415405	-69.023178	-287.453857	1249.127563	-404.789124	-355.651672	1310.407593	-234.171677	-220.427872	1221.141235	-229.404480	-244.839935	985.634644	-13.266363	-301.399597	950.991943	-444.956146	-186.205879	782.957428	-27.006066	-228.546227	757.638153	-454.129837	-222.223633	859.355347	-87.013245	-223.624084	859.509888	-331.635040	-357.630096	882.461121	-154.306915	-394.449860	884.016724	-242.456833	-376.039978	883.238922	-198.381874	-360.559845	1013.997437	-216.705231	-169.630615	1045.925049	-228.715027	-270.894409	640.532654	5.894705	-262.067444	412.762878	-58.208061	-296.029297	286.444275	-1.350248	-282.152985	73.472664	-65.012581	-317.802948	45.909737	-121.373550	-172.813614	45.508415	-40.187553	-315.305603	593.467285	-417.234131	-308.429504	409.232422	-339.880646	-313.543457	269.218475	-378.480743	-337.794098	66.649757	-300.216980	-375.930298	43.794216	-258.392395	-212.520020	39.373039	-289.417633
